<svg width="318" height="676" viewBox="0 0 318 676" fill="none" xmlns="http://www.w3.org/2000/svg">
<mask id="path-1-inside-1_1019_67" fill="white">
<path d="M48 114C48 86.3858 70.3858 64 98 64L268 64C295.614 64 318 86.3858 318 114L318 647L48 647L48 114Z"/>
</mask>
<path d="M48 114C48 86.3858 70.3858 64 98 64L268 64C295.614 64 318 86.3858 318 114L318 647L48 647L48 114Z" fill="#241E38"/>
<path d="M38 114C38 80.8629 64.8629 54 98 54L268 54C301.137 54 328 80.8629 328 114L308 114C308 91.9086 290.091 74 268 74L98 74C75.9086 74 58 91.9086 58 114L38 114ZM318 647L48 647L318 647ZM38 647L38 114C38 80.8629 64.8629 54 98 54L98 74C75.9086 74 58 91.9086 58 114L58 647L38 647ZM268 54C301.137 54 328 80.8629 328 114L328 647L308 647L308 114C308 91.9086 290.091 74 268 74L268 54Z" fill="#404040" mask="url(#path-1-inside-1_1019_67)"/>
<path d="M92.7299 78.6735C102.439 54.9352 129.554 43.5624 153.292 53.2718C177.031 62.9812 188.404 90.0959 178.694 113.834L146.845 191.702C145.408 195.216 140.732 195.909 138.337 192.962L131.712 184.81L118.157 187.567L112.896 186.924L109.481 184.018L104.109 173.52L90.9477 176.438L85.6869 175.795L81.8781 172.728L78.0832 162.875L65.7273 163.765C62.0276 164.031 59.336 160.318 60.7402 156.885L92.7299 78.6735Z" fill="#D9D9D9"/>
<path d="M158.904 119.454C154.806 129.472 152.92 121.058 149 119.454C145.08 117.851 140.61 123.666 144.708 113.648C148.805 103.63 153.08 100.397 157 102C160.92 103.603 163.001 109.436 158.904 119.454Z" fill="#393939"/>
<path d="M123.475 106.092C119.377 116.11 117.491 107.696 113.571 106.092C109.651 104.489 105.181 110.304 109.279 100.286C113.377 90.2677 117.651 87.0343 121.571 88.6376C125.491 90.241 127.572 96.0741 123.475 106.092Z" fill="#393939"/>
<path d="M90.5947 215.244C123.719 174.038 159.749 173.403 173.701 178.285C210.808 192.452 209.737 236.755 204.493 257.536C204.425 257.806 204.38 258.071 204.356 258.349L196.526 349.389C196.254 352.544 193.156 354.655 190.12 353.754L67.6729 317.388C65.0731 316.616 63.5628 313.912 64.2688 311.293L89.6736 217.058C89.8507 216.401 90.1683 215.775 90.5947 215.244Z" fill="#415473" stroke="#415473" stroke-width="2" stroke-linecap="round"/>
<path d="M201.324 241.581C191.338 265.184 159.502 301.37 128.363 288.196C97.2227 275.021 101.024 226.975 111.01 203.371C120.996 179.768 149.308 169.187 174.248 179.738C199.187 190.289 211.31 217.977 201.324 241.581Z" fill="#F3E9E9"/>
<path d="M207.726 267.432C202.76 274.886 193.416 277.387 186.856 273.016C180.296 268.646 185.844 265.956 190.809 258.501C195.775 251.047 198.28 241.651 204.84 246.021C211.399 250.391 212.692 259.977 207.726 267.432Z" fill="#F3E9E9"/>
<path d="M88.7922 219.752C87.47 228.611 92.3573 236.682 99.7084 237.779C107.059 238.877 104.93 233.185 106.252 224.326C107.574 215.467 111.848 206.795 104.497 205.698C97.1456 204.601 90.1145 210.893 88.7922 219.752Z" fill="#F3E9E9"/>
<path d="M193.81 245.069C187 263 180.643 252.791 170.5 248.5C160.357 244.209 155.687 241.626 159.84 231.811C163.992 221.997 165.638 209.301 183.913 219.484C194.056 223.775 197.962 235.254 193.81 245.069Z" fill="#D8C7C7"/>
<path d="M115.857 212.908C111.548 223.093 115.207 233.913 124.741 237.946C134.276 241.98 142.689 237.424 146.998 227.239C151.307 217.054 159.264 206.523 140.346 201.063C130.812 197.029 120.166 202.723 115.857 212.908Z" fill="url(#paint0_linear_1019_67)"/>
<path d="M156.698 241.765C164.737 247.147 183.071 258.581 192.099 261.259C181.809 252.234 160.323 235.701 156.698 241.765Z" fill="#414141" stroke="#414141"/>
<path d="M111.663 215.238C107.985 223.93 112.724 234.243 122.248 238.272C131.771 242.301 142.274 238.437 145.952 229.745C149.629 221.053 140.907 219.6 131.75 216.956C121.347 214.401 111.788 211.28 111.663 215.238Z" fill="#FBF4F4"/>
<ellipse cx="11.8897" cy="10.7573" rx="11.8897" ry="10.7573" transform="matrix(-0.920969 -0.389636 -0.389636 0.920969 146.283 224.265)" fill="#C0D4F2"/>
<ellipse cx="11.8897" cy="10.7573" rx="11.8897" ry="10.7573" transform="matrix(-0.920969 -0.389636 -0.389636 0.920969 146.283 224.265)" fill="#C0D4F2"/>
<ellipse cx="11.8897" cy="10.7573" rx="11.8897" ry="10.7573" transform="matrix(-0.920969 -0.389636 -0.389636 0.920969 146.283 224.265)" fill="#5F6D8C"/>
<path d="M146.185 223.38C136.848 221.411 116.152 216.332 108.064 211.769C121.538 212.799 148.026 216.562 146.185 223.38Z" fill="#414141" stroke="#414141"/>
<path d="M171.963 212.558C170.76 210.908 172.315 209.855 173.242 209.534C185.673 212.511 191.743 219.738 193.223 222.979C190.68 220.001 177.99 214.791 171.963 212.558Z" fill="#415473" stroke="#415473"/>
<path d="M152.849 204.368C154.871 204.083 154.544 202.234 154.128 201.345C143.335 194.498 133.922 195.172 130.565 196.365C134.473 196.118 147.05 201.597 152.849 204.368Z" fill="#415473" stroke="#415473"/>
<path d="M125.819 260.5C126.832 262.038 130.629 265.197 137.713 265.532C140.15 268.385 146.183 273.488 150.817 271.076" stroke="#A99595" stroke-width="4" stroke-linecap="round"/>
<path d="M139.171 251.412C140.088 252.877 142.905 255.575 146.831 254.653" stroke="#A99595" stroke-width="3" stroke-linecap="round"/>
<path d="M192.415 262.663C189.832 268.768 185.838 272.217 181.008 273.541C176.133 274.879 170.252 274.094 163.871 271.394C157.49 268.695 153.161 265.16 151.036 260.889C148.927 256.651 148.898 251.503 151.5 245.353C152.814 242.248 154.116 240.505 155.427 239.608C156.684 238.747 158.074 238.581 159.82 238.948C161.611 239.325 163.674 240.244 166.183 241.466C166.707 241.721 167.248 241.988 167.808 242.265C169.891 243.293 172.221 244.444 174.81 245.54C177.361 246.619 179.825 247.501 182.065 248.303C182.707 248.533 183.33 248.756 183.932 248.975C186.669 249.973 188.93 250.882 190.612 251.978C192.267 253.058 193.265 254.258 193.621 255.816C193.986 257.415 193.721 259.578 192.415 262.663Z" fill="#F1F1F1" fill-opacity="0.5" stroke="#455265" stroke-width="2"/>
<path d="M100.522 223.785C95.1532 236.475 101.659 246.16 114.664 251.662C127.669 257.164 137.91 254.564 143.279 241.875C148.647 229.186 139.386 229.467 126.381 223.965C113.377 218.463 105.89 211.096 100.522 223.785Z" fill="#F1F1F1" fill-opacity="0.5"/>
<path d="M101.443 224.175C98.8596 230.28 99.1664 235.548 101.579 239.937C104.014 244.367 108.672 248.041 115.053 250.741C121.435 253.441 126.986 254.086 131.531 252.637C136.042 251.199 139.756 247.635 142.358 241.485C143.672 238.38 144.015 236.231 143.747 234.666C143.489 233.165 142.64 232.051 141.161 231.054C139.643 230.031 137.547 229.19 134.923 228.241C134.375 228.042 133.806 227.84 133.218 227.631C131.029 226.852 128.58 225.981 125.992 224.886C123.44 223.807 121.092 222.653 118.956 221.603C118.344 221.303 117.75 221.011 117.173 220.731C114.552 219.462 112.325 218.472 110.367 218.029C108.44 217.593 106.883 217.712 105.517 218.541C104.115 219.393 102.748 221.09 101.443 224.175Z" stroke="#455265" stroke-opacity="0.8" stroke-width="2"/>
<path d="M140.747 246.406C142.84 246.061 146.844 246.526 149.09 249.935" stroke="#455265" stroke-opacity="0.8" stroke-width="2" stroke-linecap="round"/>
<path d="M157.101 404.323L86.348 374.39C85.8393 374.174 85.2526 374.412 85.0374 374.921L57.3895 440.271C57.1743 440.78 57.4122 441.367 57.9209 441.582L87.1426 453.945C87.6513 454.16 88.238 453.922 88.4532 453.413L91.6738 445.801C91.8889 445.292 92.4757 445.055 92.9844 445.27L100.934 448.633C101.443 448.848 101.681 449.435 101.466 449.944L98.2451 457.556C98.0299 458.065 98.2678 458.651 98.7764 458.867L128.673 471.515C129.182 471.73 129.769 471.493 129.984 470.984L157.632 405.634C157.847 405.125 157.609 404.538 157.101 404.323Z" fill="#363C46" stroke="#363C46" stroke-width="2" stroke-linecap="round"/>
<path d="M137.61 421.334C127.351 459.589 104.751 450.028 83.0732 440.856C61.3949 431.685 37.359 421.516 59.1062 388.122C67.5478 368.168 97.5068 371.4 113.643 368.6C125.575 384.15 146.052 401.381 137.61 421.334Z" fill="#455265"/>
<path d="M108.264 208.637C120.302 189.108 161.287 190.02 183.629 191.77C185.688 191.931 187.654 192.776 188.857 194.455C196.793 205.531 199.764 231.269 199.618 245.133L192.873 313.708C192.642 316.055 193.678 318.348 195.592 319.726C199.75 322.72 205.586 320.057 206.05 314.955L212 249.5C212 212 200.286 192.093 190.183 184.025C149.77 156.063 111.399 181.973 96.7557 199.449C96.2017 200.11 95.7753 200.848 95.4486 201.646L70.2638 263.172C69.1082 265.995 70.4387 269.222 73.2482 270.411C76.8654 271.941 81.7287 269.465 83.1011 265.785C88.3264 251.774 101.114 223.813 108.264 208.637Z" fill="#61779A" stroke="#61779A" stroke-width="2" stroke-linecap="round"/>
<path d="M115.94 299.231L122.006 284.891C126.274 288.172 133.691 290.45 136.867 291.179L130.8 305.518L115.94 299.231Z" fill="#F3E9E9" stroke="#F3E9E9" stroke-width="2" stroke-linecap="round"/>
<path d="M152.874 347.067C143.358 369.56 117.201 379.991 94.4509 370.366C71.7007 360.741 60.9721 334.705 70.4881 312.212C80.004 289.72 99.2878 292.493 122.038 302.118C144.788 311.743 162.39 324.575 152.874 347.067Z" fill="#455265"/>
<path d="M121.754 343.713C113.605 362.974 93.3937 372.832 76.6107 365.731C59.8276 358.631 52.8281 337.261 60.9768 318C67.8562 301.739 89.6212 304.137 108.352 302.728C125.135 309.828 129.902 324.452 121.754 343.713Z" fill="#455265"/>
<path d="M106.12 339.427C97.9709 358.688 105.122 380.122 122.091 387.301C139.061 394.48 159.423 384.686 167.572 365.425C174.451 349.165 157.359 335.123 145.156 320.627C128.186 313.447 114.268 320.166 106.12 339.427Z" fill="#455265"/>
<path d="M100.377 371.18C79.7833 384.299 88.8097 371.359 83.3813 362.837C77.9528 354.316 66.1198 355.673 75.7201 346.026C82.5044 341.705 90.2168 344.863 98.0031 351.506C103.718 360.477 107.162 366.859 100.377 371.18Z" fill="#F3E9E9"/>
<path d="M175.513 314.636C164.377 327.521 173.819 322.255 178.485 326.287C183.15 330.319 180.673 338.05 188.104 332.231C191.773 327.986 210.646 308.523 187.671 317.245C192.617 297.311 179.181 310.391 175.513 314.636Z" fill="#F3E9E9"/>
<path d="M95 398L51.7873 557.848C50.2314 563.603 54.0252 569.433 59.9176 570.341L164.242 586.419C169.845 587.283 175.044 583.321 175.699 577.691L199.368 374.128C202.679 327.244 161.808 309.669 141.11 306.48C99.1708 303.018 103.316 370.277 95 398Z" fill="#3F3F3F" stroke="#3F3F3F"/>
<path d="M111.648 434.169C108.43 433.048 102.376 426.857 99.7508 423.901C102.592 384.925 116.459 345.41 123.038 330.524L144.892 358.842L189.245 372.086L176.12 402.546C190.099 412.593 192.35 417.695 191.728 418.989C185.136 420.216 170.952 419.85 164.685 419.514C162.626 421.34 150.216 431.222 144.268 435.935C134.736 435.814 114.867 435.29 111.648 434.169Z" fill="#FFFAF9" stroke="#FFFAF9" stroke-width="3" stroke-linecap="round"/>
<path d="M165.691 396.195C161.121 403.781 156.397 415.238 140.055 405.82C129.468 399.719 131.227 395.876 132.981 383.497C135.616 373.748 134.291 357.535 153.996 368.825C163.906 374.503 168.326 386.446 165.691 396.195Z" fill="#6B6B6B"/>
<path d="M165.844 393.26C152.884 369.267 141.044 375.342 136.744 381.379C131.319 389.441 132.307 395.273 133.479 397.182L146.48 403.393C161.261 406.95 165.548 398.119 165.844 393.26Z" fill="#ECECEC" stroke="#ECECEC" stroke-width="3" stroke-linecap="round"/>
<ellipse cx="145.779" cy="386.295" rx="3.34813" ry="9.75976" transform="rotate(15.1275 145.779 386.295)" fill="#3A3A3A"/>
<path d="M159.756 391.254C147.994 383.118 138.179 382.53 134.741 383.252L134.875 382.758C143.819 361.106 163.192 382.979 171.761 396.623C170.093 396.88 163.063 393.15 159.756 391.254Z" fill="#313131" stroke="#313131" stroke-width="3" stroke-linecap="round"/>
<path d="M136.945 368.811C135.073 368.751 134.332 368.022 134.109 367.41C134 367.111 134.231 366.832 134.536 366.738C142.484 365.355 154.593 366.236 160.704 366.963C161.173 366.995 161.579 367.044 161.91 367.115C161.541 367.065 161.137 367.015 160.704 366.963C154.958 366.576 139.786 368.901 136.945 368.811Z" fill="#4B4B4B" stroke="#4B4B4B" stroke-width="3" stroke-linecap="round" stroke-linejoin="round"/>
<path d="M110.398 415.116C112.928 413.529 118.767 411.123 121.882 414.195" stroke="#B4ABA9" stroke-width="3" stroke-linecap="round"/>
<path d="M115.894 391.322C115.187 393.94 110.694 394.972 114.243 397.43" stroke="#B4ABA9" stroke-width="2" stroke-linecap="round"/>
<path d="M118.77 418.783C118.383 416.057 117.783 414.928 117.532 414.704C118.004 412.959 120.425 414.393 121.576 415.329C121.642 416.47 119.733 418.107 118.77 418.783Z" fill="#CCCCCC" stroke="#CCCCCC"/>
<path d="M98.4429 446.334L99.0263 427.803C99.0872 425.867 100.936 424.488 102.808 424.985C108.184 426.413 117.499 428.892 118.384 429.212L141.986 434.756C144.001 435.229 144.943 437.554 143.824 439.296L133.146 455.937C132.44 457.038 131.101 457.555 129.838 457.213L100.659 449.325C99.3162 448.962 98.3992 447.724 98.4429 446.334Z" fill="#585858" stroke="#585858"/>
<path d="M86.6618 512.818C89.0773 521.654 100.103 524.635 106.641 518.22L147 478.62C153.621 472.123 150.682 460.891 141.727 458.47L86.4596 443.53C77.5047 441.109 69.3067 449.33 71.7527 458.278L86.6618 512.818Z" fill="#585858"/>
<rect x="86.4485" y="512.255" width="22.7762" height="36.0623" rx="3" transform="rotate(15.1275 86.4485 512.255)" fill="#454545"/>
<rect x="66.4426" y="502.725" width="57.5732" height="17.7148" rx="8.85742" transform="rotate(-91.8066 66.4426 502.725)" fill="#585858"/>
<rect x="71.9419" y="558.6" width="57.5732" height="17.7148" rx="8.85742" transform="rotate(-94.0461 71.9419 558.6)" fill="#585858"/>
<rect width="58.2059" height="17.7148" rx="8.85742" transform="matrix(0.23806 -0.97125 -0.97125 -0.23806 144.055 523.793)" fill="#585858"/>
<path d="M51.5608 580.614C52.0245 558.267 70.5163 540.527 92.8634 540.991C115.211 541.454 132.951 559.946 132.487 582.293L131.23 642.857C131.173 645.618 128.888 647.81 126.127 647.752L55.1993 646.281C52.4385 646.223 50.2468 643.939 50.3041 641.178L51.5608 580.614Z" fill="#585858"/>
<path d="M80.7739 557.309C86.8817 557.018 91.67 553.353 92.0436 561.206C92.4172 569.059 87.7687 575.661 81.6608 575.952C75.553 576.242 70.2987 570.112 69.9251 562.259C69.5514 554.406 74.666 557.599 80.7739 557.309Z" fill="#D9D9D9"/>
<path d="M77.4716 553.128C87.3463 522.75 113.131 420.723 129.332 353.884C130.892 347.447 139.657 346.522 142.567 352.471C142.751 352.848 142.968 353.207 143.215 353.544L152.02 365.553L174.238 390.456L177.156 394.085C178.577 395.853 179.355 398.052 179.362 400.32L179.432 423.307L166.654 576.542C166.21 581.871 170.406 586.446 175.754 586.462C180.572 586.476 184.578 582.755 184.917 577.948L199.276 374.469C196.557 320.312 157.152 307.935 137.984 307.795C100.979 303.667 90.642 323.876 81.2862 352.168C81.0961 352.743 80.9588 353.339 80.8769 353.938L55.3 541.396C54.8066 545.012 56.3223 548.61 59.2546 550.783L66.5855 556.215C70.8011 559.338 75.8496 558.118 77.4716 553.128Z" fill="#4B4B4B" stroke="#4B4B4B" stroke-width="3" stroke-linecap="round"/>
<rect x="175.668" y="397.044" width="10.7701" height="2.03209" rx="1.01605" transform="rotate(-10.6987 175.668 397.044)" fill="#D9D9D9"/>
<circle cx="185.891" cy="395.437" r="0.945008" transform="rotate(15.1275 185.891 395.437)" fill="#D9D9D9"/>
<circle cx="186.557" cy="396.596" r="0.945008" transform="rotate(15.1275 186.557 396.596)" fill="#D9D9D9"/>
<circle cx="176.115" cy="397.2" r="0.945008" transform="rotate(15.1275 176.115 397.2)" fill="#D9D9D9"/>
<circle cx="176.781" cy="398.358" r="0.945008" transform="rotate(15.1275 176.781 398.358)" fill="#D9D9D9"/>
<rect width="57.5732" height="17.7148" rx="8.85742" transform="matrix(-0.965347 -0.260969 -0.260969 0.965347 145.806 506.835)" fill="#585858"/>
<path d="M91.2096 500.923C92.9272 495.055 97.649 491.272 90.0248 489.04C82.4007 486.809 74.8277 489.757 73.11 495.626C71.3924 501.495 76.1806 508.061 83.8048 510.292C91.4289 512.524 89.492 506.792 91.2096 500.923Z" fill="#FFFAF9"/>
<path d="M93 64L52.9967 77.5146C32.6779 84.3791 19 103.437 19 124.884V672L93 647V64Z" fill="#404040"/>
<path d="M246 197C247.5 198.667 251.4 201.5 255 199.5V262.5" stroke="#800573" stroke-width="5" stroke-linecap="round"/>
<path d="M289.5 204V218.5" stroke="#800573" stroke-width="5" stroke-linecap="round"/>
<path d="M220 123.5L224.25 129L228 120" stroke="#800573" stroke-width="5" stroke-linecap="round"/>
<g filter="url(#filter0_d_1019_67)">
<path d="M258.683 110.036H247.739V108.92L251.123 106.256V86.348L241.511 110.036H239.531L229.991 86.096V106.688L233.771 108.596L233.051 110.036H224.627V108.92L228.011 106.256V85.16L224.267 83.144L224.987 81.704H232.799L241.799 104.312L250.763 81.704H259.043V82.82L255.623 85.484V107.264L259.403 108.596L258.683 110.036ZM282.197 92L273.089 110L265.601 119.504L264.233 118.424C265.601 116.96 266.633 115.676 267.329 114.572C268.049 113.468 268.553 112.352 268.841 111.224C269.129 110.12 269.273 108.8 269.273 107.264L264.737 96.284L261.389 94.34V93.224L267.545 90.2L268.913 95.636L273.305 106.364L278.381 95.816L273.593 92.324L274.313 90.884H282.197V92ZM216.034 154H205.99V152.884L209.194 150.364V128.224L205.99 125.992V124.876L212.146 122.572H213.514V151.3L216.754 152.56L216.034 154ZM230.044 154H220V152.884L223.204 150.364V139.852L220 137.62V136.504L226.156 134.2H227.524V151.3L230.764 152.56L230.044 154ZM225.22 123.4C225.94 123.4 226.528 123.664 226.984 124.192C227.464 124.72 227.704 125.38 227.704 126.172C227.704 126.724 227.536 127.252 227.2 127.756C226.864 128.236 226.444 128.62 225.94 128.908C225.436 129.196 224.944 129.34 224.464 129.34C223.744 129.34 223.144 129.076 222.664 128.548C222.208 128.02 221.98 127.36 221.98 126.568C221.98 126.016 222.148 125.5 222.484 125.02C222.82 124.516 223.24 124.12 223.744 123.832C224.248 123.544 224.74 123.4 225.22 123.4ZM244.252 154.072C243.7 154.264 243.028 154.36 242.236 154.36C240.244 154.36 238.78 153.844 237.844 152.812C236.932 151.756 236.476 150.136 236.476 147.952V137.44H232.588V135.964L239.428 128.008H240.796V135.964H247.276V137.44H240.796V148.384C240.796 150.328 241.732 151.3 243.604 151.3C244.108 151.3 244.588 151.192 245.044 150.976C245.524 150.76 246.112 150.376 246.808 149.824L247.888 151.192L244.252 154.072ZM260.67 154.072C260.118 154.264 259.446 154.36 258.654 154.36C256.662 154.36 255.198 153.844 254.262 152.812C253.35 151.756 252.894 150.136 252.894 147.952V137.44H249.006V135.964L255.846 128.008H257.214V135.964H263.694V137.44H257.214V148.384C257.214 150.328 258.15 151.3 260.022 151.3C260.526 151.3 261.006 151.192 261.462 150.976C261.942 150.76 262.53 150.376 263.226 149.824L264.306 151.192L260.67 154.072ZM276.152 154H266.108V152.884L269.312 150.364V128.224L266.108 125.992V124.876L272.264 122.572H273.632V151.3L276.872 152.56L276.152 154ZM292.393 154.072C291.433 154.264 290.281 154.36 288.937 154.36C287.353 154.36 285.925 153.952 284.653 153.136C283.405 152.296 282.421 151.168 281.701 149.752C281.005 148.336 280.657 146.776 280.657 145.072C280.657 143.224 281.221 141.496 282.349 139.888C283.477 138.256 284.881 136.96 286.561 136C288.265 135.016 289.909 134.524 291.493 134.524C293.773 134.524 295.537 135.424 296.785 137.224C298.057 139.024 298.693 141.4 298.693 144.352H285.373C285.517 146.392 286.069 148.06 287.029 149.356C288.013 150.652 289.345 151.3 291.025 151.3C292.585 151.3 294.805 150.088 297.685 147.664L298.765 149.032L292.393 154.072ZM289.405 137.548C286.813 137.548 285.457 139.324 285.337 142.876H293.761C293.545 141.58 293.317 140.596 293.077 139.924C292.861 139.228 292.465 138.664 291.889 138.232C291.337 137.776 290.509 137.548 289.405 137.548ZM215.912 194.112C215.912 193.44 215.54 192.828 214.796 192.276C214.052 191.7 212.912 191.016 211.376 190.224C210.128 189.576 209.12 189.012 208.352 188.532C207.584 188.052 206.924 187.5 206.372 186.876C205.844 186.228 205.58 185.532 205.58 184.788C205.58 183.924 205.94 183 206.66 182.016C207.38 181.032 208.268 180.204 209.324 179.532C210.38 178.86 211.364 178.524 212.276 178.524C213.38 178.524 214.652 178.668 216.092 178.956C217.556 179.22 218.612 179.52 219.26 179.856V185.4H217.892C217.124 183.912 216.236 182.76 215.228 181.944C214.22 181.104 213.188 180.684 212.132 180.684C211.388 180.684 210.788 180.888 210.332 181.296C209.876 181.68 209.648 182.172 209.648 182.772C209.648 183.516 210.032 184.188 210.8 184.788C211.592 185.364 212.78 186.048 214.364 186.84C215.588 187.464 216.572 188.004 217.316 188.46C218.06 188.916 218.684 189.456 219.188 190.08C219.716 190.68 219.98 191.352 219.98 192.096C219.98 192.984 219.596 193.92 218.828 194.904C218.084 195.864 217.16 196.68 216.056 197.352C214.976 198.024 213.98 198.36 213.068 198.36C211.892 198.36 210.488 198.228 208.856 197.964C207.248 197.676 206.096 197.364 205.4 197.028V191.484H206.768C207.608 192.972 208.604 194.136 209.756 194.976C210.908 195.792 212.072 196.2 213.248 196.2C214.04 196.2 214.676 195.996 215.156 195.588C215.66 195.18 215.912 194.688 215.912 194.112ZM234.689 198.072C234.137 198.264 233.465 198.36 232.673 198.36C230.681 198.36 229.217 197.844 228.281 196.812C227.369 195.756 226.913 194.136 226.913 191.952V181.44H223.025V179.964L229.865 172.008H231.233V179.964H237.713V181.44H231.233V192.384C231.233 194.328 232.169 195.3 234.041 195.3C234.545 195.3 235.025 195.192 235.481 194.976C235.961 194.76 236.549 194.376 237.245 193.824L238.325 195.192L234.689 198.072ZM251.872 178.524C253.456 178.524 254.872 178.944 256.12 179.784C257.392 180.6 258.376 181.716 259.072 183.132C259.792 184.548 260.152 186.108 260.152 187.812C260.152 189.66 259.588 191.4 258.46 193.032C257.332 194.64 255.916 195.936 254.212 196.92C252.532 197.88 250.9 198.36 249.316 198.36C247.732 198.36 246.304 197.952 245.032 197.136C243.784 196.296 242.8 195.168 242.08 193.752C241.384 192.336 241.036 190.776 241.036 189.072C241.036 187.224 241.6 185.496 242.728 183.888C243.856 182.256 245.26 180.96 246.94 180C248.644 179.016 250.288 178.524 251.872 178.524ZM249.784 181.548C247.072 181.548 245.716 183.48 245.716 187.344C245.716 189.624 246.208 191.532 247.192 193.068C248.176 194.58 249.58 195.336 251.404 195.336C254.116 195.336 255.472 193.392 255.472 189.504C255.472 187.248 254.98 185.364 253.996 183.852C253.012 182.316 251.608 181.548 249.784 181.548ZM277.644 178.56C278.436 178.56 279.132 178.776 279.732 179.208C280.332 179.64 280.8 180.24 281.136 181.008L278.76 183.996H277.392C277.296 183.396 277.116 182.976 276.852 182.736C276.612 182.472 276.276 182.34 275.844 182.34C275.316 182.34 274.752 182.484 274.152 182.772C273.576 183.036 272.916 183.552 272.172 184.32V195.048L277.212 196.596L276.492 198.036H264.648V196.92L267.852 194.4V184.212L264.648 182.34V181.224L270.804 178.2L271.92 182.628L275.664 178.812C276.168 178.62 276.828 178.524 277.644 178.524V178.56ZM302.324 180L293.216 198L285.728 207.504L284.36 206.424C285.728 204.96 286.76 203.676 287.456 202.572C288.176 201.468 288.68 200.352 288.968 199.224C289.256 198.12 289.4 196.8 289.4 195.264L284.864 184.284L281.516 182.34V181.224L287.672 178.2L289.04 183.636L293.432 194.364L298.508 183.816L293.72 180.324L294.44 178.884H302.324V180Z" fill="#4975CB"/>
</g>
<defs>
<filter id="filter0_d_1019_67" x="201.6" y="81.704" width="104.524" height="133.6" filterUnits="userSpaceOnUse" color-interpolation-filters="sRGB">
<feFlood flood-opacity="0" result="BackgroundImageFix"/>
<feColorMatrix in="SourceAlpha" type="matrix" values="0 0 0 0 0 0 0 0 0 0 0 0 0 0 0 0 0 0 127 0" result="hardAlpha"/>
<feOffset dy="4"/>
<feGaussianBlur stdDeviation="1.9"/>
<feComposite in2="hardAlpha" operator="out"/>
<feColorMatrix type="matrix" values="0 0 0 0 0.566667 0 0 0 0 0 0 0 0 0 0.491111 0 0 0 1 0"/>
<feBlend mode="normal" in2="BackgroundImageFix" result="effect1_dropShadow_1019_67"/>
<feBlend mode="normal" in="SourceGraphic" in2="effect1_dropShadow_1019_67" result="shape"/>
</filter>
<linearGradient id="paint0_linear_1019_67" x1="139.804" y1="200.529" x2="124.09" y2="237.671" gradientUnits="userSpaceOnUse">
<stop offset="0.425" stop-color="#D8C7C7"/>
<stop offset="1" stop-color="#A49595"/>
</linearGradient>
</defs>
</svg>
